<?xml version="1.0" encoding="UTF-8"?>
<svg version="1.1" xmlns="http://www.w3.org/2000/svg" width="384" height="384">
<path d="M0 0 C126.72 0 253.44 0 384 0 C384 126.72 384 253.44 384 384 C257.28 384 130.56 384 0 384 C0 257.28 0 130.56 0 0 Z " fill="#F9F9FB" transform="translate(0,0)"/>
<path d="M0 0 C0.62648437 0.33902344 1.25296875 0.67804687 1.8984375 1.02734375 C10.63944987 6.39027929 14.49868338 17.78081233 18.6875 26.6875 C19.46504639 28.32380371 19.46504639 28.32380371 20.25830078 29.99316406 C21.32730695 32.24305292 22.39436862 34.49386671 23.45947266 36.74560547 C25.75116958 41.58686063 28.06277299 46.41852548 30.375 51.25 C30.82109619 52.18320068 31.26719238 53.11640137 31.72680664 54.07788086 C43.37674179 78.43721022 55.19509065 102.71553976 67 127 C68.45578403 129.994765 69.91150771 132.98955933 71.3671875 135.984375 C71.72603027 136.72254959 72.08487305 137.46072418 72.45458984 138.2212677 C74.23736468 141.88912707 76.01890193 145.55757861 77.79785156 149.22729492 C78.49280662 150.66066001 79.1877934 152.09400972 79.8828125 153.52734375 C80.22320557 154.22937424 80.56359863 154.93140472 80.91430664 155.65470886 C82.98063389 159.91215386 85.05985265 164.16302217 87.14952087 168.40905762 C88.47851864 171.11158077 89.80166484 173.81694462 91.12393188 176.52276611 C91.7433069 177.7863274 92.36546422 179.04852915 92.99057007 180.30926514 C93.84584568 182.03471653 94.69077158 183.76528659 95.53515625 185.49609375 C96.25264038 186.95293579 96.25264038 186.95293579 96.98461914 188.43920898 C98 191 98 191 98 195 C98.66 195 99.32 195 100 195 C100.62972466 196.50834663 100.62972466 196.50834663 101.27217102 198.04716492 C102.90793186 201.86045225 104.74526407 205.55793513 106.64526367 209.24536133 C107.37317212 210.66822275 108.10096537 212.09114311 108.82865906 213.51411438 C109.21000189 214.25808283 109.59134472 215.00205128 109.98424339 215.76856422 C112.02005234 219.74733924 114.03919786 223.73456818 116.06054688 227.72070312 C118.62401888 232.7756366 121.19256782 237.82770726 123.78393555 242.8684082 C125.88632902 246.95905294 127.96873645 251.05932872 130.03826332 255.16669273 C130.82651386 256.72231912 131.62187045 258.27436725 132.42464256 259.82254982 C140.75343231 275.9033266 140.75343231 275.9033266 139 284 C136.82395522 288.89610076 134.00403616 291.0985973 129.234375 293.1875 C117.80735962 297.34277832 102.4018442 298.43082989 91.140625 293.36328125 C85.90459962 290.02865925 82.45974475 286.80241865 79.4375 281.375 C79.12232422 280.80958496 78.80714844 280.24416992 78.48242188 279.66162109 C72.5173441 268.70065182 67.33043185 257.27835421 62 246 C60.21384277 245.99383667 60.21384277 245.99383667 58.39160156 245.98754883 C53.97058924 245.96576529 49.55046792 245.91148405 45.12988281 245.84741211 C43.21720931 245.82422524 41.30440801 245.80983477 39.39160156 245.80444336 C36.64046526 245.79515863 33.89134088 245.75418073 31.140625 245.70703125 C30.28631897 245.7109639 29.43201294 245.71489655 28.55181885 245.71894836 C22.60506772 245.5730289 22.60506772 245.5730289 19.46411133 242.59838867 C17.98128087 239.96677877 17.43223481 238.49062919 17.4375 235.5 C17.40462891 234.40171875 17.40462891 234.40171875 17.37109375 233.28125 C18.33437521 229.78711102 20.24318427 228.29276263 23 226 C26.22973633 225.34057617 26.22973633 225.34057617 29.83203125 225.29296875 C31.12431641 225.26396484 32.41660156 225.23496094 33.74804688 225.20507812 C35.10286219 225.1986898 36.45768013 225.19283712 37.8125 225.1875 C39.1868884 225.16434252 40.56124144 225.13897455 41.93554688 225.11132812 C45.29065515 225.05246658 48.64445874 225.01617663 52 225 C50.25120236 221.33275871 48.50074249 217.66631316 46.75 214 C46.25886719 212.97003906 45.76773438 211.94007813 45.26171875 210.87890625 C43.0995606 206.35278852 40.92902745 201.83879737 38.640625 197.375 C37 194 37 194 37 192 C36.01257813 192.02320313 35.02515625 192.04640625 34.0078125 192.0703125 C32.72648438 192.08835938 31.44515625 192.10640625 30.125 192.125 C28.84882813 192.14820313 27.57265625 192.17140625 26.2578125 192.1953125 C23 192 23 192 21 190 C20.75 187.5 20.75 187.5 21 185 C23 183 23 183 24.9453125 182.8046875 C26.96354167 182.86979167 28.98177083 182.93489583 31 183 C30.4436888 181.53929462 29.87945615 180.0816067 29.3125 178.625 C28.99925781 177.81289062 28.68601563 177.00078125 28.36328125 176.1640625 C27.13655664 173.31693662 25.80702167 170.57093481 24.41479492 167.80224609 C23.96303391 166.90267181 23.51127289 166.00309753 23.04582214 165.07626343 C22.70070084 164.3910965 22.35557953 163.70592957 22 163 C14.32788798 162.97473395 6.6557866 162.95716877 -1.01635742 162.94506836 C-3.62866619 162.94002623 -6.24097211 162.93319275 -8.85327148 162.92456055 C-12.59880268 162.91248964 -16.34429672 162.90677065 -20.08984375 162.90234375 C-21.85387794 162.89460182 -21.85387794 162.89460182 -23.65354919 162.88670349 C-24.73459427 162.88662796 -25.81563934 162.88655243 -26.92944336 162.88647461 C-27.88652695 162.884254 -28.84361053 162.88203339 -29.82969666 162.87974548 C-31.97917624 162.75687501 -31.97917624 162.75687501 -33 164 C-36.05269221 164.43344514 -38.95130682 164.47150264 -42 164 C-44.70595567 161.57888177 -45.81743399 159.41007987 -47.28515625 156.11328125 C-49.15973517 152.71000243 -51.10606887 150.80739696 -54.0625 148.3125 C-56.87830569 145.91844494 -58.9413222 144.08801669 -61 141 C-64.11637201 141.445196 -66.91505691 141.96860799 -69.875 143.0625 C-75.49071626 144.74721488 -80.65376492 144.67311754 -86 142 C-86.25394531 142.83273438 -86.50789063 143.66546875 -86.76953125 144.5234375 C-88.38110311 149.07676753 -90.50899302 153.30901722 -92.69726562 157.609375 C-94.51289683 161.28659523 -94.51289683 161.28659523 -94.859375 165.30078125 C-93.46846797 168.05098379 -91.21450016 169.89352423 -89 172 C-86.70986347 175.4352048 -86.82157027 176.985331 -87 181 C-76.49074259 181.04629837 -65.98150937 181.08185648 -55.47217083 181.10362434 C-50.59249461 181.11407073 -45.71288807 181.12824552 -40.83325195 181.15087891 C-36.12595241 181.17257681 -31.41871997 181.18456219 -26.71137428 181.18975449 C-24.91359208 181.19345574 -23.11581363 181.20068316 -21.31805992 181.21146011 C-18.80399962 181.2259345 -16.29021817 181.22797965 -13.77612305 181.22705078 C-12.65618706 181.23783661 -12.65618706 181.23783661 -11.5136261 181.24884033 C-7.78487162 181.23388917 -6.1871011 181.12473406 -3 179 C1.36007907 178.50640614 3.50460646 178.72478136 7.375 180.875 C10.34779675 183.28154975 10.83583407 183.99155214 11.4375 187.6875 C10.89723401 191.77808535 9.56830268 193.67218865 6.78125 196.63671875 C5 198 5 198 1.4375 198.6875 C-2.4571741 197.90856518 -4.21321354 196.78678646 -7 194 C-7.33 193.34 -7.66 192.68 -8 192 C-8.62100082 191.98969254 -9.24200165 191.97938507 -9.88182068 191.96876526 C-16.48727576 191.85854703 -23.09265096 191.7441919 -29.69799805 191.62768555 C-32.14622284 191.58500904 -34.59446482 191.54330474 -37.04272461 191.50268555 C-53.70714199 191.22534472 -70.3498816 190.74921739 -87 190 C-87.2165625 191.423125 -87.2165625 191.423125 -87.4375 192.875 C-88 196 -88 196 -89 198 C-88.46890625 198.20238281 -87.9378125 198.40476563 -87.390625 198.61328125 C-83.95785099 200.60451454 -81.49096799 203.34461657 -78.75 206.1875 C-74.47066493 210.5534199 -70.16014587 214.77889161 -65.48828125 218.73046875 C-64 220 -64 220 -62 222 C-60.32774271 221.69595322 -58.66246041 221.35371498 -57 221 C-49.20999456 219.87614546 -44.21782583 222.38713643 -38 227 C-35.37692083 229.20172483 -34.72967169 230.69698558 -34 234 C-32.14483765 234.03758423 -32.14483765 234.03758423 -30.25219727 234.07592773 C-25.68063287 234.16982253 -21.10922682 234.27008629 -16.5378418 234.37231445 C-14.55610854 234.41573144 -12.57433622 234.45740137 -10.5925293 234.49731445 C-7.7503683 234.55485383 -4.90840517 234.61859445 -2.06640625 234.68359375 C-1.17474258 234.70030624 -0.28307892 234.71701874 0.63560486 234.73423767 C6.88612829 234.88612829 6.88612829 234.88612829 8 236 C8.1875 238.9375 8.1875 238.9375 8 242 C6 244 6 244 3.71606445 244.24291992 C2.774646 244.23881104 1.83322754 244.23470215 0.86328125 244.23046875 C-0.18287354 244.22917969 -1.22902832 244.22789062 -2.30688477 244.2265625 C-3.98028931 244.20722656 -3.98028931 244.20722656 -5.6875 244.1875 C-6.81406006 244.18105469 -7.94062012 244.17460937 -9.10131836 244.16796875 C-17.43243339 244.09154198 -25.70258496 243.75553698 -34 243 C-34.10828125 243.75023437 -34.2165625 244.50046875 -34.328125 245.2734375 C-35.03654607 248.14830904 -35.81119708 249.43635134 -37.75 251.625 C-38.48476563 252.47964844 -38.48476563 252.47964844 -39.234375 253.3515625 C-44.19614257 257.98400921 -48.38982299 258.62129445 -54.99609375 258.5078125 C-59.09941278 257.81414348 -61.20245638 255.94938836 -64.28515625 253.2890625 C-66.01876386 251.74149929 -66.01876386 251.74149929 -68.8125 251.8125 C-71.5668715 252.8386384 -74.16831561 253.97907362 -76.83203125 255.21484375 C-83.44296606 258.23438427 -90.14568052 261.00650821 -96.875 263.75 C-98.07125 264.24371094 -99.2675 264.73742187 -100.5 265.24609375 C-102.22863281 265.95185547 -102.22863281 265.95185547 -103.9921875 266.671875 C-105.02714355 267.0956543 -106.06209961 267.51943359 -107.12841797 267.95605469 C-109.75950112 268.91256817 -112.24384978 269.54011375 -115 270 C-115.00257812 270.67804688 -115.00515625 271.35609375 -115.0078125 272.0546875 C-115.35225489 280.34426767 -117.63431736 286.74651949 -123.671875 292.62890625 C-131.3195283 298.50497014 -138.87901817 299.66643504 -148.25390625 298.7890625 C-156.22653252 297.54117317 -162.22422386 292.72587281 -166.9375 286.3125 C-167.618125 285.219375 -168.29875 284.12625 -169 283 C-169.36609375 282.42121094 -169.7321875 281.84242188 -170.109375 281.24609375 C-172.50642098 275.20091199 -171.92222438 265.65378691 -169.875 259.5 C-165.89716791 252.07471343 -160.30196661 246.10501374 -152.1171875 243.37109375 C-149.46447416 242.90613477 -146.94169371 242.90545603 -144.25 242.9375 C-143.26515625 242.94652344 -142.2803125 242.95554687 -141.265625 242.96484375 C-140.14414063 242.98224609 -140.14414063 242.98224609 -139 243 C-138.89945313 242.31679688 -138.79890625 241.63359375 -138.6953125 240.9296875 C-137.86285897 237.42215857 -136.43824322 234.35040449 -134.875 231.125 C-134.56804199 230.47805176 -134.26108398 229.83110352 -133.94482422 229.16455078 C-132.63878514 226.41237387 -131.31977991 223.66646889 -130.00195312 220.91992188 C-129.03845313 218.90706545 -128.08160048 216.89114222 -127.125 214.875 C-126.82706543 214.26027832 -126.52913086 213.64555664 -126.22216797 213.01220703 C-124.65606512 209.70963413 -123.35800324 206.65686229 -123 203 C-124.35357398 200.52681429 -124.35357398 200.52681429 -126.375 198.3125 C-131.19203526 192.60306578 -131.4128842 189.13878671 -131.3359375 181.62109375 C-130.69439563 174.70586923 -127.63834489 170.10209707 -122.5 165.5625 C-118.7635648 162.8694467 -116.15173494 162.92684886 -111.625 162.9375 C-108.16855052 162.80345452 -108.16855052 162.80345452 -105 161 C-100.87753816 155.43540021 -98.41151711 148.77337441 -95.9387207 142.35009766 C-95.06527833 140.16342501 -94.08510394 138.08829052 -93 136 C-93.66 136 -94.32 136 -95 136 C-98.93012653 132.06987347 -99.36595184 128.69680436 -99.5625 123.1875 C-99.29328821 114.6714337 -96.71751265 109.2993897 -90.5625 103.5 C-87.37347155 101.02799079 -85.10564488 100.15790942 -81 100 C-80.16210938 99.93941406 -79.32421875 99.87882812 -78.4609375 99.81640625 C-72.05204641 99.52509302 -67.1983381 100.07382903 -62 104 C-56.2336588 109.35608768 -53.39110912 113.9585391 -52.625 121.875 C-52.71478808 126.52602252 -54.65952196 130.07134043 -57 134 C-56.41347656 134.26039063 -55.82695312 134.52078125 -55.22265625 134.7890625 C-52.86149734 136.07545839 -51.31060277 137.45580298 -49.4375 139.375 C-48.85871094 139.96023437 -48.27992188 140.54546875 -47.68359375 141.1484375 C-46 143 -46 143 -44.6015625 145.1640625 C-42.02696695 148.11542814 -39.00782275 147.87426458 -35.27734375 148.3125 C-33 149 -33 149 -31.69140625 151.0625 C-31.46324219 151.701875 -31.23507813 152.34125 -31 153 C-30.04867187 152.98839844 -29.09734375 152.97679687 -28.1171875 152.96484375 C-13.06585244 152.84705389 1.96184418 153.44071745 17 154 C9.38285503 137.79334338 9.38285503 137.79334338 1.1875 121.875 C-9 102.9521359 -9 102.9521359 -9 99 C-9.57993713 99.00888245 -10.15987427 99.01776489 -10.75738525 99.0269165 C-16.79176988 99.11539029 -22.82597038 99.17573422 -28.86083984 99.21972656 C-31.11319461 99.23984556 -33.36549713 99.26714408 -35.61767578 99.30175781 C-38.85462331 99.35026209 -42.09088047 99.37296605 -45.328125 99.390625 C-46.83925873 99.42159271 -46.83925873 99.42159271 -48.38092041 99.45318604 C-55.35986725 99.45542752 -55.35986725 99.45542752 -58.56542969 97.17480469 C-60 95 -60 95 -61.625 91.8125 C-63.66357942 88.8118662 -63.66357942 88.8118662 -66.40625 88.5 C-68.18710969 88.37718209 -69.97274042 88.30872667 -71.7578125 88.30078125 C-72.86769531 88.15189453 -72.86769531 88.15189453 -74 88 C-76.50830188 84.23754718 -76.39564127 82.46841906 -76 78 C-74.99392953 75.50932698 -73.97232383 73.33271247 -72.6875 71 C-71.94933191 69.59505598 -71.21381358 68.18871765 -70.48046875 66.78125 C-70.08134277 66.02070312 -69.6822168 65.26015625 -69.27099609 64.4765625 C-66.90673833 59.86975674 -64.71601061 55.17939699 -62.5 50.5 C-58.10732889 41.27727593 -53.65250677 32.09454889 -49 23 C-48.69078613 22.38882324 -48.38157227 21.77764648 -48.06298828 21.14794922 C-47.15700174 19.36391822 -46.23499339 17.5880518 -45.3125 15.8125 C-44.79300781 14.80832031 -44.27351563 13.80414063 -43.73828125 12.76953125 C-39.23442927 5.59373113 -31.38855073 -0.86097648 -23.26171875 -3.52734375 C-14.75456348 -5.30517758 -7.46641908 -4.36742275 0 0 Z " fill="#2B7F81" transform="translate(206,39)"/>
<path d="M0 0 C6.40889109 -0.29131323 11.2625994 0.25742278 16.4609375 4.18359375 C22.2272787 9.53968143 25.06982838 14.14213285 25.8359375 22.05859375 C25.74614942 26.70961627 23.80141554 30.25493418 21.4609375 34.18359375 C22.04746094 34.44398438 22.63398438 34.704375 23.23828125 34.97265625 C25.59944016 36.25905214 27.15033473 37.63939673 29.0234375 39.55859375 C29.60222656 40.14382812 30.18101562 40.7290625 30.77734375 41.33203125 C32.4609375 43.18359375 32.4609375 43.18359375 33.859375 45.34765625 C36.43397055 48.29902189 39.45311475 48.05785833 43.18359375 48.49609375 C45.4609375 49.18359375 45.4609375 49.18359375 46.76953125 51.24609375 C46.99769531 51.88546875 47.22585937 52.52484375 47.4609375 53.18359375 C48.41226563 53.17199219 49.36359375 53.16039062 50.34375 53.1484375 C65.39508506 53.03064764 80.42278168 53.6243112 95.4609375 54.18359375 C95.7909375 53.52359375 96.1209375 52.86359375 96.4609375 52.18359375 C98.4409375 57.13359375 98.4409375 57.13359375 100.4609375 62.18359375 C98.01506226 62.22117798 98.01506226 62.22117798 95.51977539 62.25952148 C89.49462439 62.35339048 83.46959424 62.45366047 77.44458008 62.5559082 C74.83230406 62.59933499 72.21999822 62.64100413 69.60766602 62.6809082 C65.86205031 62.73842382 62.11658581 62.80217139 58.37109375 62.8671875 C56.60705956 62.89225624 56.60705956 62.89225624 54.80738831 62.91783142 C53.72634323 62.93777664 52.64529816 62.95772186 51.53149414 62.97827148 C50.09586876 63.00158791 50.09586876 63.00158791 48.63124084 63.02537537 C46.48231056 62.94427985 46.48231056 62.94427985 45.4609375 64.18359375 C42.40824529 64.61703889 39.50963068 64.65509639 36.4609375 64.18359375 C33.75498183 61.76247552 32.64350351 59.59367362 31.17578125 56.296875 C29.30120233 52.89359618 27.35486863 50.99099071 24.3984375 48.49609375 C21.58263181 46.10203869 19.5196153 44.27161044 17.4609375 41.18359375 C14.34456549 41.62878975 11.54588059 42.15220174 8.5859375 43.24609375 C2.97022124 44.93080863 -2.19282742 44.85671129 -7.5390625 42.18359375 C-7.79300781 43.01632813 -8.04695313 43.8490625 -8.30859375 44.70703125 C-9.92016561 49.26036128 -12.04805552 53.49261097 -14.23632812 57.79296875 C-16.05195933 61.47018898 -16.05195933 61.47018898 -16.3984375 65.484375 C-15.00753047 68.23457754 -12.75356266 70.07711798 -10.5390625 72.18359375 C-8.24892597 75.61879855 -8.36063277 77.16892475 -8.5390625 81.18359375 C1.97019491 81.22989212 12.47942813 81.26545023 22.98876667 81.28721809 C27.86844289 81.29766448 32.74804943 81.31183927 37.62768555 81.33447266 C42.33498509 81.35617056 47.04221753 81.36815594 51.74956322 81.37334824 C53.54734542 81.37704949 55.34512387 81.38427691 57.14287758 81.39505386 C59.65693788 81.40952825 62.17071933 81.4115734 64.68481445 81.41064453 C65.80475044 81.42143036 65.80475044 81.42143036 66.9473114 81.43243408 C70.67606588 81.41748292 72.2738364 81.30832781 75.4609375 79.18359375 C79.82101657 78.68999989 81.96554396 78.90837511 85.8359375 81.05859375 C88.80873425 83.4651435 89.29677157 84.17514589 89.8984375 87.87109375 C89.35817151 91.9616791 88.02924018 93.8557824 85.2421875 96.8203125 C83.4609375 98.18359375 83.4609375 98.18359375 79.8984375 98.87109375 C76.0037634 98.09215893 74.24772396 96.97038021 71.4609375 94.18359375 C71.1309375 93.52359375 70.8009375 92.86359375 70.4609375 92.18359375 C69.83993668 92.17328629 69.21893585 92.16297882 68.57911682 92.15235901 C61.97366174 92.04214078 55.36828654 91.92778565 48.76293945 91.8112793 C46.31471466 91.76860279 43.86647268 91.72689849 41.41821289 91.6862793 C24.75379551 91.40893847 8.1110559 90.93281114 -8.5390625 90.18359375 C-8.6834375 91.13234375 -8.8278125 92.08109375 -8.9765625 93.05859375 C-9.5390625 96.18359375 -9.5390625 96.18359375 -10.5390625 98.18359375 C-10.00796875 98.38597656 -9.476875 98.58835937 -8.9296875 98.796875 C-5.49691349 100.78810829 -3.03003049 103.52821032 -0.2890625 106.37109375 C3.99027257 110.73701365 8.30079163 114.96248536 12.97265625 118.9140625 C14.4609375 120.18359375 14.4609375 120.18359375 16.4609375 122.18359375 C18.13319479 121.87954697 19.79847709 121.53730873 21.4609375 121.18359375 C29.25094294 120.05973921 34.24311167 122.57073018 40.4609375 127.18359375 C43.08401667 129.38531858 43.73126581 130.88057933 44.4609375 134.18359375 C46.31609985 134.22117798 46.31609985 134.22117798 48.20874023 134.25952148 C52.78030463 134.35341628 57.35171068 134.45368004 61.9230957 134.5559082 C63.90482896 134.59932519 65.88660128 134.64099512 67.8684082 134.6809082 C70.7105692 134.73844758 73.55253233 134.8021882 76.39453125 134.8671875 C77.28619492 134.88389999 78.17785858 134.90061249 79.09654236 134.91783142 C85.34706579 135.06972204 85.34706579 135.06972204 86.4609375 136.18359375 C86.6484375 139.12109375 86.6484375 139.12109375 86.4609375 142.18359375 C84.4609375 144.18359375 84.4609375 144.18359375 82.17700195 144.42651367 C81.2355835 144.42240479 80.29416504 144.4182959 79.32421875 144.4140625 C78.27806396 144.41277344 77.23190918 144.41148437 76.15405273 144.41015625 C74.48064819 144.39082031 74.48064819 144.39082031 72.7734375 144.37109375 C71.64687744 144.36464844 70.52031738 144.35820312 69.35961914 144.3515625 C61.02850411 144.27513573 52.75835254 143.93913073 44.4609375 143.18359375 C44.35265625 143.93382812 44.244375 144.6840625 44.1328125 145.45703125 C43.42439143 148.33190279 42.64974042 149.61994509 40.7109375 151.80859375 C39.97617187 152.66324219 39.97617187 152.66324219 39.2265625 153.53515625 C34.26479493 158.16760296 30.07111451 158.8048882 23.46484375 158.69140625 C19.36152472 157.99773723 17.25848112 156.13298211 14.17578125 153.47265625 C12.44217364 151.92509304 12.44217364 151.92509304 9.6484375 151.99609375 C6.894066 153.02223215 4.29262189 154.16266737 1.62890625 155.3984375 C-4.98202856 158.41797802 -11.68474302 161.19010196 -18.4140625 163.93359375 C-19.6103125 164.42730469 -20.8065625 164.92101562 -22.0390625 165.4296875 C-23.19148438 165.90019531 -24.34390625 166.37070312 -25.53125 166.85546875 C-26.56620605 167.27924805 -27.60116211 167.70302734 -28.66748047 168.13964844 C-31.29856362 169.09616192 -33.78291228 169.7237075 -36.5390625 170.18359375 C-36.54164062 170.86164063 -36.54421875 171.5396875 -36.546875 172.23828125 C-36.89131739 180.52786142 -39.17337986 186.93011324 -45.2109375 192.8125 C-52.8585908 198.68856389 -60.41808067 199.85002879 -69.79296875 198.97265625 C-77.76559502 197.72476692 -83.76328636 192.90946656 -88.4765625 186.49609375 C-89.1571875 185.40296875 -89.8378125 184.30984375 -90.5390625 183.18359375 C-90.90515625 182.60480469 -91.27125 182.02601563 -91.6484375 181.4296875 C-94.04548348 175.38450574 -93.46128688 165.83738066 -91.4140625 159.68359375 C-87.43623041 152.25830718 -81.84102911 146.28860749 -73.65625 143.5546875 C-71.00353666 143.08972852 -68.48075621 143.08904978 -65.7890625 143.12109375 C-64.80421875 143.13011719 -63.819375 143.13914062 -62.8046875 143.1484375 C-61.68320313 143.16583984 -61.68320313 143.16583984 -60.5390625 143.18359375 C-60.43851563 142.50039063 -60.33796875 141.8171875 -60.234375 141.11328125 C-59.40192147 137.60575232 -57.97730572 134.53399824 -56.4140625 131.30859375 C-56.10710449 130.66164551 -55.80014648 130.01469727 -55.48388672 129.34814453 C-54.17784764 126.59596762 -52.85884241 123.85006264 -51.54101562 121.10351562 C-50.57751563 119.0906592 -49.62066298 117.07473597 -48.6640625 115.05859375 C-48.36612793 114.44387207 -48.06819336 113.82915039 -47.76123047 113.19580078 C-46.19512762 109.89322788 -44.89706574 106.84045604 -44.5390625 103.18359375 C-45.89263648 100.71040804 -45.89263648 100.71040804 -47.9140625 98.49609375 C-52.73109776 92.78665953 -52.9519467 89.32238046 -52.875 81.8046875 C-52.23345813 74.88946298 -49.17740739 70.28569082 -44.0390625 65.74609375 C-40.3026273 63.05304045 -37.69079744 63.11044261 -33.1640625 63.12109375 C-29.70761302 62.98704827 -29.70761302 62.98704827 -26.5390625 61.18359375 C-22.41660066 55.61899396 -19.95057961 48.95696816 -17.4777832 42.53369141 C-16.60434083 40.34701876 -15.62416644 38.27188427 -14.5390625 36.18359375 C-15.1990625 36.18359375 -15.8590625 36.18359375 -16.5390625 36.18359375 C-20.46918903 32.25346722 -20.90501434 28.88039811 -21.1015625 23.37109375 C-20.83235071 14.85502745 -18.25657515 9.48298345 -12.1015625 3.68359375 C-8.11498537 0.59335623 -4.94858662 0.35782088 0 0 Z " fill="#38CAB3" transform="translate(127.5390625,138.81640625)"/>
<path d="M0 0 C0.33 0 0.66 0 1 0 C1.04898438 0.95261719 1.09796875 1.90523437 1.1484375 2.88671875 C1.22320312 4.14097656 1.29796875 5.39523438 1.375 6.6875 C1.47941406 8.54955078 1.47941406 8.54955078 1.5859375 10.44921875 C2.08386763 14.71920449 3.22946253 17.72693809 5.4375 21.375 C6.89723129 23.82734857 7.98813643 26.29371003 9.09643555 28.91699219 C10.85546394 32.97212059 12.78235144 36.94949605 14.6875 40.9375 C15.12811768 41.86119385 15.56873535 42.7848877 16.02270508 43.73657227 C20.56732172 53.23358213 25.27279421 62.6459805 30.05078125 72.02734375 C30.37860596 72.67453369 30.70643066 73.32172363 31.04418945 73.98852539 C31.94286597 75.76223509 32.84627372 77.53354538 33.75 79.3046875 C35 82 35 82 35 84 C28.5222714 84.10140493 22.04474739 84.17146717 15.56640625 84.21972656 C13.3625524 84.23984419 11.15875193 84.26714172 8.95507812 84.30175781 C5.78762644 84.35026833 2.62088032 84.37296736 -0.546875 84.390625 C-2.02519806 84.42159271 -2.02519806 84.42159271 -3.53338623 84.45318604 C-10.36327893 84.45542735 -10.36327893 84.45542735 -13.55175781 82.17480469 C-15 80 -15 80 -16.625 76.8125 C-18.66357942 73.8118662 -18.66357942 73.8118662 -21.40625 73.5 C-23.18710969 73.37718209 -24.97274042 73.30872667 -26.7578125 73.30078125 C-27.49773437 73.20152344 -28.23765625 73.10226563 -29 73 C-31.50830188 69.23754718 -31.39564127 67.46841906 -31 63 C-29.99392953 60.50932698 -28.97232383 58.33271247 -27.6875 56 C-26.94933191 54.59505598 -26.21381358 53.18871765 -25.48046875 51.78125 C-25.08134277 51.02070312 -24.6822168 50.26015625 -24.27099609 49.4765625 C-21.90674236 44.86976459 -19.71580933 40.17948495 -17.5 35.5 C-13.1106534 26.27540733 -8.60529412 17.11827722 -4 8 C-2.6645493 5.33438635 -1.33216519 2.66725821 0 0 Z " fill="#35CFB6" transform="translate(161,54)"/>
<path d="M0 0 C3.01667905 2.00385901 5.41793975 4.52779557 7.9140625 7.125 C13.99728988 13.33339667 20.30852509 19.0816114 27.1640625 24.4375 C26.8546875 25.05625 26.5453125 25.675 26.2265625 26.3125 C24.7601347 30.62552294 24.49787224 34.9134996 24.1640625 39.4375 C23.29007813 39.78361328 23.29007813 39.78361328 22.3984375 40.13671875 C13.72451569 43.58719393 5.0699146 47.06740344 -3.3984375 51 C-7.15816968 52.71095059 -10.93145855 54.35655209 -14.7734375 55.875 C-15.64871094 56.22433594 -16.52398437 56.57367188 -17.42578125 56.93359375 C-19.8359375 57.4375 -19.8359375 57.4375 -21.90625 56.8125 C-25.06371862 54.56264382 -27.27889881 51.59678923 -29.73828125 48.62890625 C-31.92525659 46.34418899 -34.06534985 44.93602654 -36.8359375 43.4375 C-33.78024887 31.21474546 -27.79336016 20.25243376 -21.80981445 9.26171875 C-21.10696176 7.94516942 -20.4582587 6.59921686 -19.84521484 5.23852539 C-19.51215332 4.64418701 -19.1790918 4.04984863 -18.8359375 3.4375 C-16.69921875 2.93359375 -16.69921875 2.93359375 -14.1484375 2.875 C-10.65765974 2.6835865 -8.09351662 2.31289197 -4.9609375 0.75 C-1.8359375 -0.5625 -1.8359375 -0.5625 0 0 Z " fill="#F9FAFC" transform="translate(111.8359375,242.5625)"/>
<path d="M0 0 C1.02150398 0.01061211 1.02150398 0.01061211 2.06364441 0.0214386 C4.2245687 0.04928056 6.38283697 0.11198598 8.54296875 0.17578125 C10.01363427 0.20087793 11.48434068 0.22368872 12.95507812 0.24414062 C16.54772832 0.29906937 20.13883903 0.38526478 23.73046875 0.48828125 C24.2615625 1.56207031 24.79265625 2.63585937 25.33984375 3.7421875 C26.0532762 5.17843967 26.76682404 6.61463453 27.48046875 8.05078125 C27.82851563 8.75525391 28.1765625 9.45972656 28.53515625 10.18554688 C30.26169076 13.65460233 32.03674716 17.02130964 34.05859375 20.328125 C34.88617188 21.89240234 34.88617188 21.89240234 35.73046875 23.48828125 C35.23546875 24.97328125 35.23546875 24.97328125 34.73046875 26.48828125 C33.74046875 24.50828125 32.75046875 22.52828125 31.73046875 20.48828125 C29.94431152 20.48211792 29.94431152 20.48211792 28.12207031 20.47583008 C23.70105799 20.45404654 19.28093667 20.3997653 14.86035156 20.33569336 C12.94767806 20.31250649 11.03487676 20.29811602 9.12207031 20.29272461 C6.37093401 20.28343988 3.62180963 20.24246198 0.87109375 20.1953125 C0.01678772 20.19924515 -0.83751831 20.2031778 -1.7177124 20.20722961 C-7.66446353 20.06131015 -7.66446353 20.06131015 -10.80541992 17.08666992 C-12.28825038 14.45506002 -12.83729644 12.97891044 -12.83203125 9.98828125 C-12.85394531 9.25609375 -12.87585938 8.52390625 -12.8984375 7.76953125 C-11.07104292 1.14096956 -6.21066165 -0.12779139 0 0 Z " fill="#38C4B0" transform="translate(236.26953125,264.51171875)"/>
<path d="M0 0 C0.66 0 1.32 0 2 0 C7.859375 11.71875 7.859375 11.71875 8.91992188 13.8515625 C9.65361487 15.31098798 10.4002133 16.76398222 11.15820312 18.2109375 C11.52365234 18.91476563 11.88910156 19.61859375 12.265625 20.34375 C12.76497559 21.29024414 12.76497559 21.29024414 13.27441406 22.25585938 C14 24 14 24 14 27 C5.42 27 -3.16 27 -12 27 C-8.62200957 16.86602871 -8.62200957 16.86602871 -6.875 13.0625 C-6.37613281 11.96615234 -6.37613281 11.96615234 -5.8671875 10.84765625 C-5.26148834 9.55713506 -4.63754473 8.27508946 -4 7 C-3.34 7 -2.68 7 -2 7 C-1.855625 6.21625 -1.71125 5.4325 -1.5625 4.625 C-1 2 -1 2 0 0 Z " fill="#F3FAF9" transform="translate(177,102)"/>
<path d="M0 0 C1.43701612 2.71532958 2.38175141 5.42143867 3.2512207 8.36425781 C-3.26323134 8.41485171 -9.77763298 8.44994637 -16.29223633 8.47412109 C-18.5097035 8.48419606 -20.72715735 8.49785641 -22.94458008 8.51513672 C-26.12674241 8.53931945 -29.30872954 8.55072578 -32.4909668 8.55957031 C-33.98477371 8.57505417 -33.98477371 8.57505417 -35.50875854 8.59085083 C-36.88996384 8.59107742 -36.88996384 8.59107742 -38.29907227 8.59130859 C-39.1118161 8.59574982 -39.92455994 8.60019104 -40.76193237 8.60476685 C-42.7487793 8.36425781 -42.7487793 8.36425781 -44.7487793 6.36425781 C-29.8987793 6.36425781 -15.0487793 6.36425781 0.2512207 6.36425781 C-0.4087793 5.04425781 -1.0687793 3.72425781 -1.7487793 2.36425781 C-2.32321777 2.33920166 -2.89765625 2.31414551 -3.48950195 2.28833008 C-6.11777651 2.17155906 -8.74576325 2.04920362 -11.3737793 1.92675781 C-12.27741211 1.88744141 -13.18104492 1.848125 -14.11206055 1.80761719 C-18.73094076 1.58847324 -23.20031566 1.26337272 -27.7487793 0.36425781 C-27.7487793 0.03425781 -27.7487793 -0.29574219 -27.7487793 -0.63574219 C-23.47947039 -0.9191448 -19.20882404 -1.15673559 -14.9362793 -1.38574219 C-13.72133789 -1.46695313 -12.50639648 -1.54816406 -11.25463867 -1.63183594 C-10.09125977 -1.68984375 -8.92788086 -1.74785156 -7.72924805 -1.80761719 C-6.65570068 -1.87045898 -5.58215332 -1.93330078 -4.47607422 -1.99804688 C-1.7487793 -1.63574219 -1.7487793 -1.63574219 0 0 Z " fill="#6CD6C6" transform="translate(192.748779296875,129.6357421875)"/>
<path d="M0 0 C3.92983894 3.36843337 6.03193901 7.96608285 7 13 C6.67 12.34 6.34 11.68 6 11 C5.01257813 11.02320313 4.02515625 11.04640625 3.0078125 11.0703125 C1.72648438 11.08835938 0.44515625 11.10640625 -0.875 11.125 C-2.78925781 11.15980469 -2.78925781 11.15980469 -4.7421875 11.1953125 C-8 11 -8 11 -10 9 C-10.25 6.5 -10.25 6.5 -10 4 C-8 2 -8 2 -6.0546875 1.8046875 C-4.03645833 1.86979167 -2.01822917 1.93489583 0 2 C0 1.34 0 0.68 0 0 Z " fill="#46C3B3" transform="translate(237,220)"/>
<path d="M0 0 C2.24107496 2.88138209 4.33168894 5.74679343 6 9 C5.67 9.99 5.34 10.98 5 12 C4.67 11.34 4.34 10.68 4 10 C1.98330173 8.86649466 1.98330173 8.86649466 0 8 C0 5.36 0 2.72 0 0 Z " fill="#36A79D" transform="translate(238,221)"/>
<path d="M0 0 C0 3 0 3 -1.53125 4.82421875 C-2.1809375 5.43910156 -2.830625 6.05398437 -3.5 6.6875 C-4.1496875 7.31011719 -4.799375 7.93273438 -5.46875 8.57421875 C-5.9740625 9.04472656 -6.479375 9.51523437 -7 10 C-7 7 -7 7 -4.625 4.4375 C-3.75875 3.633125 -2.8925 2.82875 -2 2 C-1.34 1.34 -0.68 0.68 0 0 Z " fill="#4A868F" transform="translate(171,42)"/>
<path d="M0 0 C-1.49097658 3.7952131 -3.75700849 5.61042731 -7 8 C-4.18918919 0 -4.18918919 0 0 0 Z " fill="#56D2C0" transform="translate(85,205)"/>
</svg>
